<?xml version="1.0" encoding="UTF-8" standalone="no"?>
<!-- Created with Inkscape (http://www.inkscape.org/) -->

<svg
   width="109.93649"
   height="109.99474"
   id="svg2"
   sodipodi:version="0.32"
   inkscape:version="1.4.3 (0d15f75042, 2025-12-25)"
   version="1.0"
   inkscape:output_extension="org.inkscape.output.svg.inkscape"
   sodipodi:docname="logo_bbc_radio_3.svg"
   xmlns:inkscape="http://www.inkscape.org/namespaces/inkscape"
   xmlns:sodipodi="http://sodipodi.sourceforge.net/DTD/sodipodi-0.dtd"
   xmlns="http://www.w3.org/2000/svg"
   xmlns:svg="http://www.w3.org/2000/svg">
  <defs
     id="defs1" />
  <sodipodi:namedview
     id="namedview1"
     pagecolor="#ffffff"
     bordercolor="#000000"
     borderopacity="0.25"
     inkscape:showpageshadow="2"
     inkscape:pageopacity="0.0"
     inkscape:pagecheckerboard="0"
     inkscape:deskcolor="#d1d1d1"
     inkscape:zoom="2.8413614"
     inkscape:cx="-15.133591"
     inkscape:cy="76.899757"
     inkscape:window-width="1920"
     inkscape:window-height="1131"
     inkscape:window-x="0"
     inkscape:window-y="0"
     inkscape:window-maximized="1"
     inkscape:current-layer="g4146" />
  <g
     inkscape:label="Layer 1"
     inkscape:groupmode="layer"
     id="layer1"
     transform="translate(-162.2085,-747.56731)">
    <g
       id="g4146"
       clip-path="url(#id287)"
       transform="matrix(5.2950817,0,0,-5.2950817,-777.63091,3850.5895)">
      <circle
         style="fill:#ffffff;stroke-width:1.88855;stroke-linecap:round"
         id="path1"
         cx="187.89485"
         cy="-575.55127"
         r="8.5409069"
         transform="scale(1,-1)" />
      <g
         id="g4188"
         transform="translate(192.9109,580.5277)">
        <path
           id="path4190"
           d="M 0,0 C -0.889,0 -0.891,1.359 0,1.359 0.872,1.359 0.87,0 0,0 m 0,-2.302 c -0.889,0 -0.891,1.36 0,1.36 0.872,0 0.87,-1.36 0,-1.36 m -1.115,-8.949 c -1.908,-1.472 -5.595,-1.759 -7.57,-0.321 -0.828,0.603 -1.534,1.316 -1.509,2.295 0.071,2.606 4.432,1.499 3.384,-0.459 -0.43,-0.687 -1.469,-0.685 -2.145,-0.429 1.17,-1.701 4.337,-1.659 5.674,-0.169 0.671,0.748 0.75,1.742 0.667,2.72 -0.1,1.174 -0.666,1.912 -1.379,2.77 0.44,0.315 0.7,0.49 1.121,0.831 3.086,-0.747 4.79,-4.9 1.757,-7.238 M -7.296,2.038 c 2.05,1.161 5.9,0.396 6.038,-2.408 0.121,-2.469 -2.929,-4.135 -4.764,-5.141 -0.05,0.05 -0.404,0.401 -0.479,0.475 1.646,1.244 3.486,3.465 2.673,5.671 -0.561,1.519 -3.08,1.488 -3.74,0.069 0.63,0.219 1.528,0.252 2.012,-0.294 0.507,-0.573 0.208,-1.467 -0.424,-1.793 -0.987,-0.508 -2.722,-0.074 -2.803,1.211 -0.026,0.969 0.65,1.793 1.487,2.21 m 2.259,3.454 c -5.733,0 -10.381,-4.65 -10.381,-10.386 0,-5.737 4.648,-10.387 10.381,-10.387 5.734,0 10.381,4.65 10.381,10.387 0,5.736 -4.647,10.386 -10.381,10.386"
           style="fill:#e82c2e;fill-rule:nonzero;stroke:none" />
      </g>
    </g>
  </g>
</svg>
