<?xml version="1.0" encoding="UTF-8" standalone="no"?>
<svg
   version="1.2"
   viewBox="0 0 139.62003 100.23306"
   width="84.955826"
   height="61.094437"
   id="svg11"
   sodipodi:docname="logo_radio_paradise.svg"
   inkscape:version="1.4.3 (0d15f75042, 2025-12-25)"
   xmlns:inkscape="http://www.inkscape.org/namespaces/inkscape"
   xmlns:sodipodi="http://sodipodi.sourceforge.net/DTD/sodipodi-0.dtd"
   xmlns="http://www.w3.org/2000/svg"
   xmlns:svg="http://www.w3.org/2000/svg">
  <defs
     id="defs11" />
  <sodipodi:namedview
     id="namedview11"
     pagecolor="#ffffff"
     bordercolor="#000000"
     borderopacity="0.25"
     inkscape:showpageshadow="2"
     inkscape:pageopacity="0.0"
     inkscape:pagecheckerboard="0"
     inkscape:deskcolor="#d1d1d1"
     inkscape:zoom="2.3092567"
     inkscape:cx="75.34892"
     inkscape:cy="69.069843"
     inkscape:window-width="1920"
     inkscape:window-height="1131"
     inkscape:window-x="0"
     inkscape:window-y="0"
     inkscape:window-maximized="1"
     inkscape:current-layer="svg11" />
  <path
     fill="#666667"
     d="m 13.225716,75.627488 c 0.2,3.3 0.4,7.2 0.7,11.1 0.1,1.7 -0.7,3.4 -2.2,4.3 -1.7999999,1.1 -3.4999999,0.9 -5.3999999,0 -3,-1.3 -3.9,-3.8 -4.7,-6.6 -1.8,-6.5 -2.3,-13.2 -0.5,-19.9 0.5,-2 1.9,-3.9 3.3,-5.5 1.2,-1.5 3,-2 4.9,-1.3 1.7999999,0.7 2.8999999,2.1 3.0999999,4 0.3,2.6 0.4,5.3 0.5,8 0.1,1.8 0.2,3.5 0.3,5.9 z"
     id="path1" />
  <path
     fill="#666667"
     d="m 126.62572,69.727488 c 0.2,-2.7 0.3,-5.4 0.6,-8 0.2,-1.9 1.2,-3.3 3.1,-4 1.9,-0.7 3.7,-0.2 4.9,1.3 1.3,1.6 2.7,3.5 3.3,5.5 1.8,6.7 1.2,13.4 -0.5,19.9 -0.8,2.8 -1.7,5.3 -4.7,6.6 -1.9,0.9 -3.5,1.1 -5.2,0.1 -1.8,-1 -2.5,-2.5 -2.4,-4.4 0.2,-3.9 0.5,-7.8 0.7,-11.1 0.1,-2.4 0.1,-4.1 0.2,-5.9 z"
     id="path2" />
  <path
     fill="#666667"
     d="m 125.82572,56.027488 c -0.8,11.7 -1.5,23.3 -2.3,34.9 -0.3,4.9 -3.6,8.6 -8.5,9.300002 -4,0.6 -8.4,-2.000002 -9.9,-6.000002 -0.4,-1.2 -0.6,-2.5 -0.5,-3.7 0.1,-3.9 0.4,-7.8 0.6,-11.7 2.7,-0.6 4.6,-3 4.6,-5.9 0,-2.5 -1.5,-4.7 -3.7,-5.6 q -0.1,0 -0.1,0 c 0.3,-3.9 0.6,-7.9 0.8,-11.8 0.4,-5.8 3.6,-9 10,-9.9 0.2,-3.6 -1.3,-10.9 -2.8,-13.3 -0.3,0.6 -0.4,1 -0.6,1.5 -0.9,1.7 -2.6,2.7 -4.5,2.6 -2,-0.1 -3.8,-1.3 -4.3,-3.2 -2.8,-11.1 -10.700004,-16.9 -21.100004,-19.8 -10.9,-2.9 -21.8,-2.7 -32.4,1.4 -8.1,3.2 -13.8,8.9 -15.9,17.6 -0.8,3.2 -2.5,4.6 -5.3,4.5 -2.5,-0.2 -4,-1.8 -4.4,-5.3 -1.9,4.7 -2.8,9.4 -3.1,14.4 2.5,-0.2 4.8,0.3 6.7,2 2.5,2.1 3.5,4.9 3.7,8.2 q 0.4,5.4 0.7,10.9 c -2.5,0.8 -4.4,3.1 -4.4,5.9 0,3.1 2.2,5.6 5.1,6.1 q 0.1,0 0.1,0 c 0.3,3.8 0.6,7.6 0.8,11.3 0.1,3.1 -1.1,5.7 -3.2,7.4 -2,1.8 -4.8,2.800002 -7.4,2.400002 -1.9,-0.300002 -3.6,-1.000002 -4.8,-2.100002 -2.1,-1.5 -3.3,-3.7 -3.5,-6.5 -0.8,-9.4 -1.3,-18.8 -1.9,-28.2 -0.2,-2.3 -0.3,-4.6 -0.5,-6.9 -0.4,-4.3 1.3,-7.4 5.1,-9.4 q 0.5,-0.3 1,-0.5 c 0.7,-26.8 23.3,-46.10000046 48.5,-46.70000046 26.9,-0.7 50.200004,19.50000046 51.100004,46.30000046 0.5,0.2 1,0.5 1.5,0.8 3.3,2.1 5.1,4.9 4.8,9 z"
     id="path3" />
  <path
     fill="#f0b23e"
     d="m 69.425716,84.927488 c -1.9,5.3 -4.7,9.7 -8.4,13.5 -1.8,1.900002 -4.1,1.600002 -4.9,-0.5 -0.5,-1.4 0,-2.4 0.9,-3.3 4.6,-4.7 7.5,-10.3 8.5,-16.8 q 2.1,-14.6 -7.5,-25.5 c -0.4,-0.5 -0.8,-1 -1.3,-1.4 -1.1,-1.3 -1.1,-2.9 0,-4 1.1,-1.1 2.8,-1.1 4.1,0.2 q 5.2,5.3 8,12.2 c 0.2,0.5 0.3,0.9 0.5,1.2 1.5,-2.8 2.9,-5.6 4.6,-8.3 1.2,-1.8 2.7,-3.4 4.1,-5 1.3,-1.4 3,-1.4 4.2,-0.3 1.1,1.2 1,2.8 -0.3,4.1 -6.3,6.6 -9.3,14.4 -8.9,23.5 0.4,7.8 3.4,14.4 8.7,20.1 0.6,0.6 1.3,1.6 1.2,2.4 -0.1,0.9 -0.9,1.9 -1.6,2.4 -1.1,0.700002 -2.3,0.2 -3.2,-0.7 q -4.9,-4.9 -7.7,-11.3 c -0.3,-0.7 -0.6,-1.4 -1,-2.5 z"
     id="path4" />
  <path
     fill="#f0b23e"
     d="m 61.325716,71.827488 c -0.1,8.6 -2.8,15 -8.2,20.2 -0.7,0.7 -2.1,1.1 -3.1,0.9 -0.7,-0.1 -1.7,-1.4 -1.8,-2.2 0,-0.9 0.6,-2.1 1.3,-2.8 4.1,-4.2 6.3,-9.1 6.3,-15 0,-5.9 -2.2,-11 -6.4,-15.1 -1.2,-1.1 -1.7,-2.3 -0.9,-3.8 0.8,-1.7 2.9,-1.9 4.5,-0.4 3.9,3.7 6.4,8.1 7.6,13.3 0.4,1.9 0.6,3.9 0.7,4.9 z"
     id="path5" />
  <path
     fill="#f0b23e"
     d="m 45.825716,72.927488 q -0.1,-4.7 -3.4,-7.9 c -0.4,-0.3 -0.9,-0.6 -1.2,-1 -1.2,-1.1 -1.3,-2.7 -0.4,-3.8 1,-1.2 2.5,-1.4 3.8,-0.4 3.5,2.5 5.7,5.9 6.4,10 1,6.3 -0.9,11.7 -5.9,15.8 -1.6,1.4 -3.2,1.3 -4.3,0 -1.1,-1.3 -0.8,-2.8 0.8,-4.2 2.9,-2.5 4.2,-5.1 4.2,-8.5 z"
     id="path6" />
  <path
     fill="#f0b23e"
     d="m 87.625716,72.027488 c 0.1,-4.3 2.1,-8.6 6.1,-11.8 1.7,-1.4 3.2,-1.3 4.3,0 1.1,1.4 0.8,3 -0.8,4.3 -5.6,4.4 -5.6,12.4 0,16.9 1.6,1.3 1.9,2.8 0.9,4.1 -1.1,1.4 -2.7,1.5 -4.3,0.2 -3.9,-3 -6.3,-7.9 -6.2,-13.7 z"
     id="path7" />
  <path
     fill="#f0b23e"
     d="m 41.225716,73.027488 c 0,3.4 -2.7,6.2 -6.1,6.2 -3.4,0 -6.2,-2.8 -6.2,-6.2 0,-3.4 2.8,-6.1 6.2,-6.1 3.4,0 6.1,2.7 6.1,6.1 z"
     id="path8" />
  <path
     fill="#f0b23e"
     d="m 78.325716,66.927488 c 1.1,-5.2 3.7,-9.6 7.5,-13.3 1.6,-1.5 3.7,-1.3 4.6,0.4 0.8,1.5 0.3,2.7 -0.9,3.8 -4.3,4.1 -6.5,9.2 -6.5,15.1 0,5.9 2.2,10.8 6.3,15 0.7,0.7 1.4,1.9 1.3,2.8 0,0.8 -1,2.1 -1.8,2.2 -0.9,0.2 -2.3,-0.2 -3,-0.9 -5.5,-5.2 -8.2,-11.6 -8.3,-20.2 0.2,-1 0.3,-3 0.8,-4.9 z"
     id="path9" />
  <path
     fill="#f0b23e"
     d="m 109.92572,72.927488 c 0,3.4 -2.7,6.2 -6.1,6.2 -3.4,0 -6.200004,-2.8 -6.200004,-6.2 0,-3.4 2.800004,-6.1 6.200004,-6.1 3.4,0 6.1,2.7 6.1,6.1 z"
     id="path10" />
</svg>
