<?xml version="1.0" encoding="UTF-8" standalone="no"?>
<svg
   id="Calque_1"
   viewBox="0 0 686.75 686.74999"
   version="1.1"
   sodipodi:docname="logo_radio_nova.svg"
   width="686.75"
   height="686.75"
   inkscape:version="1.4.3 (0d15f75042, 2025-12-25)"
   xmlns:inkscape="http://www.inkscape.org/namespaces/inkscape"
   xmlns:sodipodi="http://sodipodi.sourceforge.net/DTD/sodipodi-0.dtd"
   xmlns="http://www.w3.org/2000/svg"
   xmlns:svg="http://www.w3.org/2000/svg">
  <sodipodi:namedview
     id="namedview7"
     pagecolor="#ffffff"
     bordercolor="#000000"
     borderopacity="0.25"
     inkscape:showpageshadow="2"
     inkscape:pageopacity="0.0"
     inkscape:pagecheckerboard="0"
     inkscape:deskcolor="#d1d1d1"
     inkscape:zoom="0.67564569"
     inkscape:cx="252.3512"
     inkscape:cy="85.103777"
     inkscape:window-width="1920"
     inkscape:window-height="1131"
     inkscape:window-x="0"
     inkscape:window-y="0"
     inkscape:window-maximized="1"
     inkscape:current-layer="Calque_1" />
  <defs
     id="defs1">
    </defs>
  <g
     id="g8"
     transform="translate(0,191.825)">
    <g
       id="g3">
      <path
         fill="#070305"
         d="m 305.18,64.67 c 0,-8.85 -0.55,-14.83 -1.65,-17.94 -1.1,-3.11 -3.26,-6.06 -6.48,-8.85 -3.22,-2.79 -7.59,-4.84 -13.11,-6.16 -5.53,-1.31 -11.59,-1.97 -18.18,-1.97 -20.1,0 -33.31,5.86 -39.64,17.57 V 30.23 c -1.98,-0.21 -3.54,-0.32 -4.67,-0.32 -11.15,0 -18.26,6.14 -21.32,18.42 V 31.44 h -26.7 v 81.81 h 30.73 V 75.77 c 0,-11.85 5.31,-17.78 15.93,-17.78 1.77,0 3.78,0.27 6.03,0.81 v -3.09 l 26.21,2.45 c 0.86,-5.95 4.99,-8.93 12.39,-8.93 3.16,0 5.56,0.59 7.2,1.77 1.64,1.18 2.45,3.57 2.45,7.16 v 1.85 c -20,1.07 -33.93,4.28 -41.79,9.61 -7.86,5.34 -11.78,12.32 -11.78,20.95 0,6.38 2.4,12.04 7.2,16.97 4.8,4.93 12.02,7.4 21.68,7.4 11.74,0 20.51,-4.37 26.3,-13.11 0,4.13 0.38,7.94 1.13,11.42 h 30.57 c -1.66,-4.4 -2.49,-9.71 -2.49,-15.93 V 64.66 Z m -30.81,14.24 c 0,6.97 -1.21,11.48 -3.62,13.51 -2.41,2.04 -5.34,3.06 -8.77,3.06 -5.42,0 -8.13,-2.47 -8.13,-7.4 0,-7.29 6.84,-11.67 20.51,-13.11 v 3.94 z"
         id="path1" />
      <path
         fill="#070305"
         d="m 359.05,38.13 c -5.26,-6.17 -11.93,-9.25 -20.03,-9.25 -9.71,0 -17.51,3.86 -23.41,11.58 -5.9,7.72 -8.85,18.15 -8.85,31.29 0,14.05 2.94,24.76 8.81,32.13 5.87,7.37 13.52,11.06 22.96,11.06 10.24,0 17.59,-4.18 22.04,-12.55 v 10.86 h 30.08 V 3.46 h -31.61 v 34.67 z m 0,42.79 c 0,4.29 -0.9,7.48 -2.7,9.57 -1.8,2.09 -3.98,3.14 -6.56,3.14 -6.76,0 -10.14,-6.62 -10.14,-19.87 0,-6.76 0.66,-12.47 1.97,-17.13 1.31,-4.67 4.09,-7 8.32,-7 6.06,0 9.09,3.68 9.09,11.02 v 20.27 z"
         id="path2" />
      <rect
         fill="#070305"
         x="396.51999"
         width="32.099998"
         height="25.42"
         id="rect2"
         y="0" />
      <rect
         fill="#070305"
         x="396.51999"
         y="31.450001"
         width="32.099998"
         height="81.809998"
         id="rect3" />
      <path
         fill="#070305"
         d="m 507.63,41.83 c -8.18,-8.04 -19,-12.07 -32.46,-12.07 -13.46,0 -24.2,4.08 -32.54,12.23 -8.34,8.15 -12.51,18.34 -12.51,30.56 0,11.37 3.99,21.28 11.99,29.72 7.99,8.45 18.77,12.67 32.34,12.67 13.57,0 24.73,-4.09 33.02,-12.27 8.29,-8.18 12.43,-18.38 12.43,-30.61 0,-12.23 -4.09,-22.2 -12.27,-30.24 z m -23.57,45.89 c -1.1,5.17 -4.14,7.76 -9.13,7.76 -3.54,0 -6.19,-1.51 -7.97,-4.54 -1.77,-3.03 -2.65,-9.24 -2.65,-18.62 0,-7.99 0.86,-13.73 2.57,-17.21 1.71,-3.48 4.43,-5.23 8.13,-5.23 4.02,0 6.81,1.69 8.37,5.07 1.55,3.38 2.33,8.9 2.33,16.57 0,5.63 -0.55,11.03 -1.65,16.21 z"
         id="path3" />
    </g>
    <g
       id="g7">
      <path
         fill="#070305"
         d="M 170.22,299.5 H 101.83 V 189.79 c 0,-9.03 -1.4,-14.8 -4.2,-17.31 -2.8,-2.51 -6.32,-3.77 -10.54,-3.77 -12.46,0 -18.68,8.69 -18.68,26.06 V 299.5 H 0 V 125.17 h 63.43 v 24.69 c 9.37,-18.86 26.11,-28.28 50.23,-28.28 12.68,0 23.4,2.43 32.14,7.28 8.74,4.86 15,11.14 18.77,18.86 3.77,7.72 5.66,21.12 5.66,40.2 v 111.59 z"
         id="path4" />
      <path
         fill="#070305"
         d="m 267.89,303.1 c -28.91,0 -51.88,-9 -68.91,-27 -17.03,-18 -25.54,-39.11 -25.54,-63.34 0,-26.06 8.88,-47.76 26.66,-65.14 17.77,-17.37 40.88,-26.05 69.33,-26.05 28.45,0 51.74,8.57 69.17,25.71 17.43,17.14 26.14,38.63 26.14,64.45 0,25.82 -8.83,47.8 -26.48,65.22 -17.66,17.43 -41.11,26.14 -70.37,26.14 z m 1.03,-41.48 c 10.63,0 17.11,-5.51 19.46,-16.54 2.34,-11.03 3.51,-22.54 3.51,-34.54 0,-16.34 -1.66,-28.11 -4.97,-35.31 -3.32,-7.2 -9.26,-10.8 -17.83,-10.8 -7.89,0 -13.66,3.71 -17.31,11.14 -3.66,7.43 -5.48,19.66 -5.48,36.68 0,20 1.89,33.23 5.66,39.68 3.77,6.46 9.43,9.69 16.97,9.69 z"
         id="path5" />
      <path
         fill="#070305"
         d="M 523.13,125.17 459.28,299.5 H 408.2 L 342.89,125.17 h 70.28 l 24.96,74.04 c 2.06,6.06 3.9,12.05 5.51,17.99 0.57,-2.06 1.42,-4.68 2.56,-7.88 0.22,-0.46 0.96,-2.63 2.22,-6.51 l 25.61,-77.64 h 49.11 z"
         id="path6" />
      <path
         fill="#070305"
         d="m 686.75,299.5 h -65.14 c -1.6,-7.43 -2.41,-15.54 -2.41,-24.34 -12.34,18.63 -31.02,27.94 -56.05,27.94 -20.57,0 -35.97,-5.26 -46.2,-15.77 -10.23,-10.51 -15.34,-22.57 -15.34,-36.17 0,-18.4 8.37,-33.28 25.11,-44.66 16.74,-11.37 46.42,-18.2 89.05,-20.48 v -3.94 c 0,-7.65 -1.74,-12.74 -5.23,-15.25 -3.49,-2.51 -8.6,-3.77 -15.34,-3.77 -15.77,0 -24.57,6.34 -26.4,19.03 l -62.4,-5.83 c 8.91,-36.45 39.25,-54.68 91.02,-54.68 14.05,0 26.96,1.4 38.74,4.2 11.76,2.8 21.09,7.17 27.94,13.11 6.85,5.94 11.46,12.23 13.8,18.86 2.34,6.63 3.52,19.37 3.52,38.22 v 69.6 c 0,13.26 1.77,24.57 5.31,33.94 z m -70.96,-81.59 c -29.15,3.08 -43.71,12.4 -43.71,27.94 0,10.51 5.77,15.77 17.32,15.77 7.31,0 13.54,-2.17 18.68,-6.51 5.14,-4.34 7.71,-13.94 7.71,-28.8 z"
         id="path7" />
    </g>
  </g>
</svg>
